<?xml version="1.0" encoding="UTF-8"?><svg id="Layer_1" xmlns="http://www.w3.org/2000/svg" viewBox="0 0 3762.31 3568.77"><defs><style>.cls-1{fill:#fff;}</style></defs><polygon class="cls-1" points="1784.21 0 1784.21 678.66 1470.98 988.05 1470.46 988.05 1025.41 1428.03 1025.59 1428.21 339.25 2106.52 0 1763.26 1784.21 0"/><polygon class="cls-1" points="1784.21 1188.13 1784.21 1937.68 1346.15 2373.13 1471.16 2499.53 1472.73 2501.11 1483.21 2511.76 1784.21 2816.43 1784.21 3568.77 1723.45 3507.31 753.74 2526.07 753.39 2526.25 590.14 2360.9 1784.21 1188.13"/><polygon class="cls-1" points="3762.31 1805.36 1981.51 3565.1 1981.51 3136.76 3367.42 1790.14 2048.77 464.76 1991.95 407.41 1981.51 396.97 1981.51 3.32 1991.95 13.94 3762.31 1805.36"/></svg>