<svg xmlns="http://www.w3.org/2000/svg" xmlns:xlink="http://www.w3.org/1999/xlink" width="500" zoomAndPan="magnify" viewBox="0 0 375 374.999991" height="500" preserveAspectRatio="xMidYMid meet" version="1.0"><path fill="#fefefe" d="M 336.640625 0.210938 C 335.859375 0.210938 335.078125 0.234375 334.296875 0.285156 C 333.515625 0.332031 332.738281 0.402344 331.960938 0.5 C 331.183594 0.59375 330.414062 0.714844 329.644531 0.855469 C 328.875 1 328.113281 1.164062 327.351562 1.355469 C 326.59375 1.542969 325.84375 1.757812 325.097656 1.992188 C 324.351562 2.226562 323.613281 2.484375 322.882812 2.765625 C 322.152344 3.046875 321.433594 3.347656 320.722656 3.671875 C 320.007812 3.996094 319.308594 4.34375 318.617188 4.710938 C 317.929688 5.078125 317.25 5.464844 316.582031 5.875 C 315.917969 6.285156 315.261719 6.714844 314.621094 7.164062 C 313.984375 7.609375 313.355469 8.078125 312.746094 8.566406 C 312.132812 9.054688 311.539062 9.558594 310.957031 10.082031 C 310.375 10.605469 309.8125 11.148438 309.261719 11.703125 C 308.714844 12.261719 308.1875 12.835938 307.671875 13.429688 C 307.160156 14.019531 306.667969 14.625 306.191406 15.246094 C 305.714844 15.867188 305.257812 16.5 304.824219 17.148438 C 304.386719 17.796875 303.96875 18.457031 303.574219 19.132812 C 303.175781 19.808594 302.800781 20.492188 302.445312 21.1875 C 302.09375 21.886719 301.757812 22.59375 301.449219 23.3125 C 301.136719 24.027344 300.847656 24.753906 300.582031 25.488281 C 300.316406 26.226562 300.070312 26.96875 299.847656 27.71875 C 299.628906 28.46875 299.429688 29.222656 299.253906 29.984375 C 299.078125 30.746094 298.925781 31.515625 298.800781 32.285156 C 298.671875 33.058594 298.566406 33.832031 298.484375 34.609375 C 298.40625 35.386719 298.347656 36.167969 298.3125 36.949219 C 298.28125 37.730469 298.269531 38.511719 298.285156 39.292969 C 298.300781 40.074219 298.339844 40.855469 298.402344 41.632812 C 298.464844 42.414062 298.550781 43.191406 298.660156 43.964844 C 298.769531 44.738281 298.902344 45.507812 299.058594 46.273438 C 299.214844 47.042969 299.394531 47.800781 299.597656 48.558594 C 299.800781 49.3125 300.027344 50.058594 300.277344 50.800781 C 300.527344 51.542969 300.796875 52.277344 301.09375 53 L 41.945312 312.148438 C 41.945312 312.148438 43.621094 314.105469 52.089844 322.714844 C 60.558594 331.324219 62.65625 332.859375 62.65625 332.859375 L 321.609375 73.875 C 322.261719 74.152344 322.921875 74.414062 323.585938 74.652344 C 324.253906 74.894531 324.925781 75.117188 325.605469 75.320312 C 326.28125 75.527344 326.964844 75.710938 327.65625 75.878906 C 328.34375 76.042969 329.035156 76.191406 329.734375 76.316406 C 330.429688 76.445312 331.128906 76.554688 331.832031 76.644531 C 332.535156 76.734375 333.242188 76.800781 333.949219 76.851562 C 334.65625 76.902344 335.363281 76.933594 336.070312 76.941406 C 336.78125 76.953125 337.488281 76.945312 338.195312 76.917969 C 338.902344 76.886719 339.609375 76.839844 340.316406 76.773438 C 341.019531 76.703125 341.722656 76.617188 342.425781 76.511719 C 343.125 76.40625 343.820312 76.277344 344.515625 76.132812 C 345.210938 75.988281 345.898438 75.824219 346.582031 75.640625 C 347.265625 75.457031 347.945312 75.253906 348.621094 75.035156 C 349.292969 74.8125 349.960938 74.574219 350.617188 74.316406 C 351.277344 74.058594 351.929688 73.78125 352.574219 73.488281 C 353.222656 73.195312 353.855469 72.882812 354.484375 72.554688 C 355.113281 72.222656 355.730469 71.878906 356.335938 71.515625 C 356.945312 71.152344 357.542969 70.769531 358.128906 70.375 C 358.71875 69.976562 359.292969 69.566406 359.859375 69.136719 C 360.421875 68.707031 360.972656 68.265625 361.515625 67.804688 C 362.054688 67.347656 362.582031 66.871094 363.09375 66.382812 C 363.605469 65.894531 364.105469 65.394531 364.59375 64.878906 C 365.078125 64.363281 365.550781 63.832031 366.003906 63.289062 C 366.460938 62.75 366.902344 62.195312 367.328125 61.628906 C 367.753906 61.0625 368.164062 60.484375 368.558594 59.894531 C 368.953125 59.304688 369.328125 58.707031 369.6875 58.09375 C 370.050781 57.484375 370.390625 56.867188 370.71875 56.238281 C 371.042969 55.609375 371.351562 54.96875 371.644531 54.324219 C 371.933594 53.675781 372.207031 53.023438 372.460938 52.363281 C 372.714844 51.703125 372.953125 51.035156 373.167969 50.359375 C 373.386719 49.683594 373.585938 49.003906 373.765625 48.320312 C 373.945312 47.632812 374.105469 46.945312 374.25 46.25 C 374.390625 45.554688 374.511719 44.859375 374.613281 44.15625 C 374.71875 43.457031 374.800781 42.753906 374.867188 42.046875 C 374.929688 41.339844 374.972656 40.632812 375 39.925781 C 375.023438 39.21875 375.027344 38.511719 375.015625 37.800781 C 375 37.09375 374.964844 36.386719 374.914062 35.679688 C 374.859375 34.972656 374.785156 34.269531 374.695312 33.566406 C 374.601562 32.863281 374.488281 32.164062 374.359375 31.46875 C 374.226562 30.769531 374.074219 30.078125 373.90625 29.390625 C 373.738281 28.703125 373.546875 28.019531 373.339844 27.34375 C 373.132812 26.664062 372.90625 25.992188 372.660156 25.328125 C 372.417969 24.664062 372.15625 24.007812 371.875 23.355469 C 371.59375 22.707031 371.292969 22.0625 370.976562 21.429688 C 370.660156 20.796875 370.324219 20.171875 369.972656 19.554688 C 369.625 18.941406 369.253906 18.335938 368.871094 17.742188 C 368.484375 17.144531 368.085938 16.5625 367.667969 15.988281 C 367.25 15.414062 366.816406 14.855469 366.367188 14.304688 C 365.921875 13.757812 365.457031 13.222656 364.980469 12.699219 C 364.5 12.175781 364.007812 11.667969 363.503906 11.171875 C 362.996094 10.675781 362.476562 10.191406 361.945312 9.726562 C 361.410156 9.257812 360.867188 8.808594 360.308594 8.371094 C 359.75 7.933594 359.179688 7.511719 358.601562 7.105469 C 358.019531 6.703125 357.425781 6.3125 356.824219 5.941406 C 356.222656 5.566406 355.609375 5.210938 354.984375 4.875 C 354.363281 4.535156 353.730469 4.214844 353.09375 3.910156 C 352.453125 3.605469 351.804688 3.320312 351.148438 3.054688 C 350.492188 2.785156 349.828125 2.535156 349.160156 2.304688 C 348.488281 2.074219 347.8125 1.863281 347.132812 1.667969 C 346.449219 1.476562 345.761719 1.300781 345.070312 1.144531 C 344.378906 0.992188 343.683594 0.855469 342.988281 0.738281 C 342.289062 0.621094 341.585938 0.523438 340.882812 0.445312 C 340.175781 0.367188 339.472656 0.308594 338.765625 0.269531 C 338.054688 0.230469 337.347656 0.210938 336.640625 0.210938 Z M 336.640625 50.917969 C 335.828125 50.917969 335.027344 50.839844 334.230469 50.683594 C 333.4375 50.523438 332.664062 50.289062 331.914062 49.980469 C 331.164062 49.667969 330.453125 49.289062 329.78125 48.839844 C 329.105469 48.386719 328.480469 47.875 327.910156 47.300781 C 327.335938 46.730469 326.824219 46.105469 326.375 45.429688 C 325.921875 44.757812 325.542969 44.046875 325.230469 43.296875 C 324.921875 42.546875 324.6875 41.777344 324.53125 40.980469 C 324.371094 40.183594 324.292969 39.382812 324.292969 38.570312 C 324.292969 37.761719 324.371094 36.957031 324.53125 36.164062 C 324.6875 35.367188 324.921875 34.59375 325.230469 33.847656 C 325.542969 33.097656 325.921875 32.386719 326.375 31.710938 C 326.824219 31.039062 327.335938 30.414062 327.910156 29.839844 C 328.480469 29.265625 329.105469 28.753906 329.78125 28.304688 C 330.453125 27.855469 331.164062 27.472656 331.914062 27.164062 C 332.664062 26.851562 333.4375 26.617188 334.230469 26.460938 C 335.027344 26.304688 335.828125 26.222656 336.640625 26.222656 C 337.449219 26.222656 338.253906 26.304688 339.050781 26.460938 C 339.84375 26.617188 340.617188 26.851562 341.363281 27.164062 C 342.113281 27.472656 342.824219 27.855469 343.5 28.304688 C 344.175781 28.753906 344.796875 29.265625 345.371094 29.839844 C 345.945312 30.414062 346.457031 31.039062 346.90625 31.710938 C 347.355469 32.386719 347.738281 33.097656 348.046875 33.847656 C 348.359375 34.59375 348.59375 35.367188 348.75 36.164062 C 348.910156 36.957031 348.988281 37.761719 348.988281 38.570312 C 348.988281 39.382812 348.90625 40.183594 348.75 40.980469 C 348.589844 41.773438 348.355469 42.546875 348.046875 43.296875 C 347.734375 44.042969 347.355469 44.753906 346.902344 45.429688 C 346.453125 46.101562 345.941406 46.726562 345.367188 47.300781 C 344.796875 47.875 344.171875 48.386719 343.5 48.835938 C 342.824219 49.285156 342.113281 49.667969 341.363281 49.976562 C 340.613281 50.289062 339.84375 50.523438 339.046875 50.679688 C 338.253906 50.839844 337.449219 50.917969 336.640625 50.917969 Z M 336.640625 50.917969 " fill-opacity="1" fill-rule="nonzero"/><path fill="#52bec2" d="M 328.542969 105.40625 L 307.082031 126.867188 C 337.597656 182.957031 329.167969 254.796875 281.769531 302.199219 C 279.652344 304.3125 277.476562 306.363281 275.234375 308.34375 C 272.996094 310.328125 270.695312 312.238281 268.339844 314.082031 C 265.984375 315.925781 263.574219 317.695312 261.109375 319.394531 C 258.644531 321.089844 256.132812 322.710938 253.570312 324.253906 C 251.007812 325.800781 248.398438 327.265625 245.746094 328.652344 C 243.097656 330.039062 240.40625 331.34375 237.675781 332.566406 C 234.945312 333.789062 232.179688 334.925781 229.378906 335.980469 C 226.582031 337.035156 223.75 338.003906 220.894531 338.890625 C 218.035156 339.773438 215.152344 340.566406 212.246094 341.277344 C 209.339844 341.984375 206.414062 342.605469 203.46875 343.136719 C 200.523438 343.667969 197.566406 344.105469 194.59375 344.457031 C 191.625 344.808594 188.644531 345.070312 185.65625 345.242188 C 182.671875 345.410156 179.679688 345.492188 176.6875 345.480469 C 173.699219 345.46875 170.707031 345.367188 167.722656 345.175781 C 164.738281 344.984375 161.761719 344.699219 158.792969 344.328125 C 155.824219 343.953125 152.867188 343.492188 149.929688 342.941406 L 179.648438 313.171875 C 180.324219 313.457031 181.003906 313.726562 181.695312 313.972656 C 182.386719 314.21875 183.082031 314.445312 183.785156 314.652344 C 184.488281 314.859375 185.195312 315.046875 185.910156 315.214844 C 186.625 315.378906 187.34375 315.527344 188.0625 315.652344 C 188.785156 315.777344 189.511719 315.882812 190.238281 315.964844 C 190.96875 316.050781 191.699219 316.113281 192.429688 316.15625 C 193.160156 316.195312 193.894531 316.21875 194.625 316.21875 C 195.359375 316.21875 196.09375 316.195312 196.824219 316.15625 C 197.554688 316.113281 198.285156 316.050781 199.015625 315.964844 C 199.742188 315.882812 200.46875 315.777344 201.191406 315.652344 C 201.910156 315.527344 202.628906 315.382812 203.34375 315.214844 C 204.058594 315.046875 204.765625 314.863281 205.46875 314.65625 C 206.171875 314.449219 206.867188 314.21875 207.558594 313.972656 C 208.25 313.726562 208.929688 313.460938 209.605469 313.171875 C 210.28125 312.886719 210.945312 312.582031 211.605469 312.257812 C 212.261719 311.933594 212.910156 311.589844 213.546875 311.230469 C 214.183594 310.867188 214.8125 310.488281 215.425781 310.089844 C 216.042969 309.695312 216.648438 309.277344 217.238281 308.847656 C 217.832031 308.414062 218.410156 307.964844 218.976562 307.5 C 219.542969 307.035156 220.097656 306.554688 220.636719 306.058594 C 221.175781 305.5625 221.699219 305.050781 222.207031 304.523438 C 222.71875 303.996094 223.210938 303.453125 223.691406 302.898438 C 224.167969 302.34375 224.632812 301.777344 225.078125 301.195312 C 225.523438 300.613281 225.953125 300.019531 226.363281 299.414062 C 226.777344 298.804688 227.171875 298.1875 227.546875 297.558594 C 227.921875 296.929688 228.28125 296.292969 228.621094 295.640625 C 228.960938 294.992188 229.28125 294.335938 229.585938 293.667969 C 229.886719 293 230.171875 292.324219 230.433594 291.636719 C 230.695312 290.953125 230.941406 290.261719 231.164062 289.566406 C 231.386719 288.867188 231.589844 288.164062 231.773438 287.453125 C 231.957031 286.746094 232.121094 286.03125 232.265625 285.3125 C 232.40625 284.59375 232.527344 283.871094 232.628906 283.144531 C 232.730469 282.417969 232.8125 281.6875 232.871094 280.957031 C 232.929688 280.226562 232.96875 279.496094 232.984375 278.765625 C 233.003906 278.03125 233 277.296875 232.976562 276.566406 C 232.949219 275.832031 232.90625 275.101562 232.839844 274.371094 C 232.773438 273.640625 232.683594 272.914062 232.578125 272.1875 C 232.46875 271.464844 232.339844 270.742188 232.191406 270.027344 C 232.042969 269.308594 231.871094 268.59375 231.679688 267.886719 C 231.492188 267.179688 231.28125 266.476562 231.050781 265.78125 C 230.820312 265.085938 230.570312 264.398438 230.300781 263.714844 C 230.027344 263.035156 229.738281 262.363281 229.429688 261.695312 C 229.121094 261.03125 228.796875 260.375 228.449219 259.730469 C 228.101562 259.082031 227.738281 258.449219 227.355469 257.824219 C 226.972656 257.199219 226.574219 256.585938 226.15625 255.980469 C 225.738281 255.378906 225.304688 254.789062 224.851562 254.210938 C 224.398438 253.636719 223.933594 253.070312 223.449219 252.519531 C 222.964844 251.96875 222.464844 251.433594 221.949219 250.910156 C 221.4375 250.390625 220.90625 249.882812 220.363281 249.390625 C 219.820312 248.898438 219.261719 248.425781 218.691406 247.964844 C 218.121094 247.503906 217.535156 247.0625 216.941406 246.636719 C 216.34375 246.210938 215.734375 245.800781 215.117188 245.410156 C 214.496094 245.015625 213.867188 244.644531 213.222656 244.289062 C 212.582031 243.933594 211.933594 243.597656 211.273438 243.277344 C 210.613281 242.960938 209.941406 242.664062 209.265625 242.382812 C 208.585938 242.101562 207.902344 241.84375 207.210938 241.601562 C 206.519531 241.363281 205.820312 241.140625 205.113281 240.941406 C 204.410156 240.742188 203.699219 240.5625 202.984375 240.402344 C 202.265625 240.242188 201.546875 240.101562 200.824219 239.984375 C 200.101562 239.867188 199.375 239.769531 198.644531 239.691406 C 197.917969 239.617188 197.1875 239.558594 196.453125 239.523438 C 195.722656 239.488281 194.988281 239.476562 194.257812 239.484375 C 193.523438 239.492188 192.792969 239.519531 192.058594 239.566406 C 191.328125 239.617188 190.601562 239.6875 189.871094 239.777344 C 189.144531 239.867188 188.421875 239.980469 187.699219 240.113281 C 186.980469 240.246094 186.261719 240.398438 185.550781 240.570312 C 184.839844 240.746094 184.132812 240.9375 183.429688 241.152344 C 182.730469 241.367188 182.035156 241.601562 181.347656 241.851562 C 180.660156 242.105469 179.980469 242.378906 179.308594 242.671875 C 178.636719 242.964844 177.972656 243.277344 177.320312 243.609375 C 176.664062 243.9375 176.019531 244.289062 175.386719 244.65625 C 174.75 245.023438 174.128906 245.410156 173.515625 245.8125 C 172.90625 246.214844 172.304688 246.636719 171.714844 247.074219 C 171.128906 247.511719 170.554688 247.964844 169.992188 248.4375 C 169.429688 248.90625 168.882812 249.394531 168.347656 249.894531 C 167.8125 250.398438 167.292969 250.914062 166.789062 251.445312 C 166.285156 251.976562 165.796875 252.523438 165.324219 253.082031 C 164.851562 253.644531 164.394531 254.214844 163.953125 254.800781 C 163.511719 255.386719 163.089844 255.988281 162.683594 256.597656 C 162.277344 257.207031 161.890625 257.828125 161.519531 258.460938 C 161.148438 259.09375 160.796875 259.734375 160.464844 260.390625 C 160.128906 261.042969 159.816406 261.703125 159.519531 262.375 C 159.222656 263.042969 158.949219 263.722656 158.691406 264.410156 C 158.433594 265.097656 158.199219 265.789062 157.980469 266.488281 C 157.761719 267.191406 157.566406 267.894531 157.390625 268.605469 C 157.214844 269.320312 157.058594 270.035156 156.921875 270.753906 C 156.785156 271.476562 156.671875 272.199219 156.578125 272.925781 C 156.484375 273.652344 156.410156 274.382812 156.359375 275.113281 C 156.304688 275.84375 156.273438 276.574219 156.265625 277.308594 C 156.253906 278.042969 156.265625 278.773438 156.296875 279.507812 C 156.328125 280.238281 156.378906 280.96875 156.453125 281.699219 C 156.527344 282.429688 156.621094 283.15625 156.738281 283.878906 C 156.851562 284.601562 156.988281 285.324219 157.144531 286.039062 C 157.300781 286.753906 157.476562 287.464844 157.675781 288.171875 C 157.871094 288.878906 158.089844 289.578125 158.328125 290.269531 C 158.5625 290.964844 158.820312 291.652344 159.097656 292.328125 L 118.195312 333.242188 L 96.179688 355.253906 C 98.308594 356.347656 100.460938 357.394531 102.632812 358.398438 C 104.800781 359.402344 106.992188 360.363281 109.203125 361.277344 C 111.414062 362.195312 113.640625 363.066406 115.886719 363.890625 C 118.132812 364.714844 120.394531 365.496094 122.671875 366.230469 C 124.949219 366.964844 127.238281 367.652344 129.542969 368.292969 C 131.847656 368.933594 134.167969 369.527344 136.496094 370.074219 C 138.824219 370.621094 141.164062 371.121094 143.511719 371.574219 C 145.863281 372.027344 148.21875 372.433594 150.585938 372.789062 C 152.949219 373.148438 155.324219 373.457031 157.699219 373.71875 C 160.078125 373.980469 162.460938 374.191406 164.847656 374.355469 C 167.234375 374.519531 169.625 374.636719 172.015625 374.707031 C 174.40625 374.773438 176.796875 374.792969 179.191406 374.765625 C 181.582031 374.734375 183.972656 374.660156 186.363281 374.53125 C 188.753906 374.40625 191.136719 374.234375 193.519531 374.011719 C 195.902344 373.789062 198.277344 373.519531 200.648438 373.199219 C 203.019531 372.882812 205.382812 372.515625 207.742188 372.101562 C 210.097656 371.6875 212.445312 371.226562 214.78125 370.714844 C 217.121094 370.207031 219.445312 369.652344 221.761719 369.046875 C 224.078125 368.445312 226.378906 367.792969 228.667969 367.097656 C 230.957031 366.402344 233.230469 365.660156 235.488281 364.871094 C 237.746094 364.082031 239.988281 363.25 242.214844 362.367188 C 244.4375 361.488281 246.644531 360.566406 248.832031 359.597656 C 251.019531 358.628906 253.1875 357.617188 255.335938 356.558594 C 257.480469 355.503906 259.605469 354.402344 261.707031 353.261719 C 263.808594 352.117188 265.886719 350.933594 267.941406 349.707031 C 269.996094 348.480469 272.023438 347.214844 274.027344 345.90625 C 276.03125 344.597656 278.003906 343.246094 279.953125 341.859375 C 281.902344 340.46875 283.820312 339.042969 285.710938 337.578125 C 287.601562 336.109375 289.460938 334.605469 291.292969 333.066406 C 293.121094 331.523438 294.917969 329.945312 296.683594 328.332031 C 298.449219 326.714844 300.183594 325.066406 301.878906 323.382812 C 303.578125 321.699219 305.242188 319.980469 306.871094 318.226562 C 308.503906 316.476562 310.09375 314.691406 311.652344 312.875 C 313.210938 311.058594 314.730469 309.210938 316.210938 307.332031 C 317.695312 305.457031 319.136719 303.546875 320.542969 301.613281 C 321.949219 299.675781 323.3125 297.710938 324.636719 295.71875 C 325.964844 293.730469 327.25 291.710938 328.492188 289.667969 C 329.738281 287.625 330.9375 285.554688 332.097656 283.464844 C 333.257812 281.371094 334.375 279.257812 335.449219 277.117188 C 336.523438 274.980469 337.554688 272.824219 338.542969 270.644531 C 339.53125 268.464844 340.472656 266.265625 341.371094 264.046875 C 342.269531 261.832031 343.121094 259.597656 343.929688 257.34375 C 344.738281 255.089844 345.5 252.824219 346.214844 250.542969 C 346.929688 248.257812 347.601562 245.960938 348.222656 243.652344 C 348.847656 241.34375 349.421875 239.019531 349.949219 236.6875 C 350.480469 234.355469 350.960938 232.011719 351.394531 229.660156 C 351.828125 227.304688 352.214844 224.945312 352.554688 222.578125 C 352.894531 220.207031 353.183594 217.835938 353.425781 215.453125 C 353.667969 213.074219 353.863281 210.691406 354.007812 208.300781 C 354.152344 205.914062 354.25 203.523438 354.300781 201.132812 C 354.347656 198.738281 354.351562 196.347656 354.300781 193.957031 C 354.253906 191.5625 354.160156 189.175781 354.015625 186.785156 C 353.871094 184.398438 353.675781 182.015625 353.433594 179.632812 C 353.195312 177.253906 352.90625 174.878906 352.566406 172.511719 C 352.230469 170.140625 351.847656 167.78125 351.414062 165.429688 C 350.980469 163.074219 350.5 160.730469 349.972656 158.398438 C 349.445312 156.066406 348.871094 153.742188 348.25 151.433594 C 347.628906 149.121094 346.960938 146.824219 346.246094 144.542969 C 345.53125 142.257812 344.769531 139.992188 343.964844 137.738281 C 343.15625 135.484375 342.304688 133.25 341.40625 131.03125 C 340.511719 128.816406 339.570312 126.617188 338.582031 124.4375 C 337.597656 122.257812 336.566406 120.097656 335.496094 117.960938 C 334.421875 115.820312 333.304688 113.707031 332.144531 111.613281 C 330.988281 109.519531 329.785156 107.449219 328.542969 105.40625 Z M 194.644531 265.546875 C 195.457031 265.546875 196.257812 265.625 197.054688 265.78125 C 197.847656 265.941406 198.621094 266.175781 199.371094 266.484375 C 200.121094 266.796875 200.832031 267.175781 201.503906 267.625 C 202.179688 268.078125 202.804688 268.589844 203.375 269.160156 C 203.949219 269.734375 204.460938 270.359375 204.910156 271.03125 C 205.363281 271.707031 205.742188 272.417969 206.054688 273.167969 C 206.363281 273.917969 206.597656 274.6875 206.753906 275.484375 C 206.914062 276.277344 206.992188 277.082031 206.992188 277.894531 C 206.992188 278.703125 206.914062 279.507812 206.753906 280.300781 C 206.597656 281.097656 206.363281 281.867188 206.054688 282.617188 C 205.742188 283.367188 205.363281 284.078125 204.910156 284.753906 C 204.460938 285.425781 203.949219 286.050781 203.375 286.625 C 202.804688 287.195312 202.179688 287.710938 201.503906 288.160156 C 200.832031 288.609375 200.121094 288.992188 199.371094 289.300781 C 198.621094 289.609375 197.847656 289.84375 197.054688 290.003906 C 196.257812 290.160156 195.457031 290.242188 194.644531 290.242188 C 193.835938 290.242188 193.03125 290.160156 192.234375 290.003906 C 191.441406 289.84375 190.667969 289.609375 189.921875 289.300781 C 189.171875 288.992188 188.460938 288.609375 187.785156 288.160156 C 187.109375 287.710938 186.488281 287.195312 185.914062 286.625 C 185.339844 286.050781 184.828125 285.425781 184.378906 284.753906 C 183.929688 284.078125 183.546875 283.367188 183.238281 282.617188 C 182.925781 281.867188 182.691406 281.097656 182.535156 280.300781 C 182.375 279.507812 182.296875 278.703125 182.296875 277.894531 C 182.296875 277.082031 182.375 276.277344 182.535156 275.480469 C 182.691406 274.683594 182.925781 273.914062 183.234375 273.164062 C 183.542969 272.414062 183.925781 271.699219 184.375 271.023438 C 184.824219 270.351562 185.335938 269.726562 185.910156 269.152344 C 186.484375 268.578125 187.105469 268.0625 187.78125 267.613281 C 188.457031 267.160156 189.167969 266.777344 189.917969 266.46875 C 190.667969 266.15625 191.4375 265.921875 192.234375 265.761719 C 193.03125 265.601562 193.832031 265.523438 194.644531 265.519531 Z M 194.644531 265.546875 " fill-opacity="1" fill-rule="nonzero"/><path fill="#fefefe" d="M 177.207031 49.691406 C 183.367188 49.679688 189.5 50.054688 195.609375 50.8125 C 201.722656 51.570312 207.761719 52.710938 213.726562 54.226562 C 219.695312 55.742188 225.542969 57.628906 231.273438 59.878906 C 237.007812 62.128906 242.574219 64.730469 247.980469 67.679688 L 269.398438 46.261719 C 267.355469 45.019531 265.285156 43.816406 263.191406 42.660156 C 261.101562 41.5 258.984375 40.382812 256.847656 39.308594 C 254.707031 38.234375 252.550781 37.207031 250.371094 36.21875 C 248.191406 35.234375 245.992188 34.292969 243.773438 33.394531 C 241.554688 32.5 239.320312 31.644531 237.066406 30.839844 C 234.816406 30.035156 232.546875 29.273438 230.265625 28.558594 C 227.980469 27.84375 225.683594 27.175781 223.375 26.554688 C 221.066406 25.929688 218.742188 25.355469 216.410156 24.828125 C 214.074219 24.300781 211.734375 23.820312 209.378906 23.386719 C 207.027344 22.953125 204.667969 22.570312 202.296875 22.230469 C 199.929688 21.894531 197.554688 21.605469 195.175781 21.363281 C 192.792969 21.121094 190.410156 20.929688 188.023438 20.785156 C 185.632812 20.640625 183.246094 20.542969 180.851562 20.496094 C 178.460938 20.449219 176.070312 20.449219 173.675781 20.496094 C 171.285156 20.546875 168.894531 20.644531 166.507812 20.789062 C 164.117188 20.933594 161.734375 21.128906 159.355469 21.371094 C 156.972656 21.613281 154.601562 21.902344 152.230469 22.242188 C 149.863281 22.578125 147.503906 22.964844 145.148438 23.398438 C 142.796875 23.832031 140.453125 24.3125 138.121094 24.84375 C 135.789062 25.371094 133.464844 25.945312 131.15625 26.570312 C 128.847656 27.191406 126.550781 27.859375 124.265625 28.574219 C 121.984375 29.292969 119.71875 30.054688 117.464844 30.859375 C 115.210938 31.667969 112.976562 32.519531 110.761719 33.417969 C 108.542969 34.316406 106.34375 35.257812 104.164062 36.246094 C 101.984375 37.230469 99.828125 38.261719 97.6875 39.335938 C 95.550781 40.410156 93.4375 41.527344 91.34375 42.6875 C 89.25 43.847656 87.183594 45.050781 85.140625 46.292969 C 83.097656 47.535156 81.078125 48.820312 79.085938 50.144531 C 77.09375 51.472656 75.128906 52.835938 73.195312 54.242188 C 71.257812 55.644531 69.351562 57.089844 67.472656 58.570312 C 65.59375 60.054688 63.746094 61.574219 61.929688 63.128906 C 60.113281 64.6875 58.328125 66.28125 56.578125 67.910156 C 54.824219 69.539062 53.105469 71.203125 51.421875 72.898438 C 49.738281 74.597656 48.085938 76.332031 46.472656 78.09375 C 44.859375 79.859375 43.28125 81.660156 41.738281 83.488281 C 40.195312 85.316406 38.691406 87.175781 37.226562 89.066406 C 35.757812 90.957031 34.332031 92.875 32.941406 94.824219 C 31.550781 96.773438 30.203125 98.746094 28.894531 100.75 C 27.585938 102.753906 26.316406 104.78125 25.089844 106.835938 C 23.863281 108.886719 22.679688 110.964844 21.535156 113.066406 C 20.394531 115.167969 19.292969 117.292969 18.238281 119.441406 C 17.179688 121.585938 16.167969 123.753906 15.199219 125.941406 C 14.230469 128.128906 13.304688 130.335938 12.425781 132.558594 C 11.546875 134.785156 10.710938 137.027344 9.921875 139.285156 C 9.132812 141.542969 8.390625 143.816406 7.695312 146.105469 C 6.996094 148.394531 6.347656 150.695312 5.742188 153.011719 C 5.140625 155.324219 4.582031 157.652344 4.074219 159.988281 C 3.5625 162.328125 3.101562 164.671875 2.6875 167.03125 C 2.273438 169.386719 1.90625 171.75 1.585938 174.121094 C 1.269531 176.492188 0.996094 178.867188 0.773438 181.25 C 0.550781 183.632812 0.378906 186.019531 0.25 188.40625 C 0.125 190.796875 0.046875 193.1875 0.0195312 195.578125 C -0.0117188 197.972656 0.0078125 200.363281 0.0742188 202.753906 C 0.144531 205.144531 0.257812 207.535156 0.421875 209.921875 C 0.585938 212.308594 0.800781 214.691406 1.0625 217.070312 C 1.320312 219.445312 1.628906 221.820312 1.988281 224.183594 C 2.34375 226.550781 2.746094 228.90625 3.199219 231.257812 C 3.652344 233.605469 4.152344 235.945312 4.699219 238.273438 C 5.246094 240.605469 5.839844 242.921875 6.480469 245.226562 C 7.121094 247.53125 7.808594 249.820312 8.539062 252.097656 C 9.273438 254.375 10.054688 256.636719 10.878906 258.882812 C 11.703125 261.128906 12.574219 263.355469 13.488281 265.566406 C 14.402344 267.777344 15.363281 269.96875 16.367188 272.140625 C 17.371094 274.3125 18.417969 276.460938 19.507812 278.59375 L 41.523438 256.578125 L 143.480469 154.609375 C 144.160156 154.886719 144.847656 155.140625 145.539062 155.378906 C 146.230469 155.613281 146.929688 155.828125 147.636719 156.023438 C 148.339844 156.21875 149.050781 156.394531 149.765625 156.550781 C 150.480469 156.707031 151.199219 156.839844 151.921875 156.953125 C 152.644531 157.070312 153.371094 157.160156 154.097656 157.234375 C 154.828125 157.304688 155.558594 157.359375 156.289062 157.386719 C 157.019531 157.417969 157.75 157.429688 158.480469 157.417969 C 159.214844 157.40625 159.945312 157.375 160.675781 157.320312 C 161.402344 157.265625 162.132812 157.191406 162.859375 157.097656 C 163.582031 157.003906 164.304688 156.886719 165.023438 156.75 C 165.742188 156.613281 166.457031 156.457031 167.167969 156.28125 C 167.878906 156.105469 168.582031 155.90625 169.28125 155.6875 C 169.980469 155.472656 170.671875 155.234375 171.355469 154.976562 C 172.042969 154.71875 172.71875 154.441406 173.386719 154.144531 C 174.058594 153.851562 174.71875 153.535156 175.367188 153.203125 C 176.019531 152.867188 176.660156 152.515625 177.292969 152.144531 C 177.921875 151.773438 178.542969 151.386719 179.152344 150.980469 C 179.757812 150.574219 180.355469 150.148438 180.941406 149.710938 C 181.523438 149.269531 182.097656 148.8125 182.65625 148.339844 C 183.210938 147.867188 183.757812 147.378906 184.289062 146.875 C 184.816406 146.371094 185.332031 145.851562 185.832031 145.316406 C 186.335938 144.78125 186.820312 144.234375 187.289062 143.671875 C 187.757812 143.113281 188.210938 142.539062 188.644531 141.949219 C 189.082031 141.363281 189.5 140.761719 189.902344 140.152344 C 190.304688 139.539062 190.6875 138.917969 191.054688 138.285156 C 191.421875 137.648438 191.769531 137.007812 192.097656 136.351562 C 192.429688 135.699219 192.738281 135.039062 193.03125 134.367188 C 193.320312 133.695312 193.59375 133.015625 193.847656 132.328125 C 194.097656 131.640625 194.332031 130.949219 194.542969 130.25 C 194.757812 129.546875 194.949219 128.84375 195.121094 128.132812 C 195.292969 127.421875 195.445312 126.703125 195.578125 125.984375 C 195.707031 125.265625 195.820312 124.542969 195.910156 123.816406 C 196 123.089844 196.066406 122.359375 196.117188 121.632812 C 196.164062 120.902344 196.191406 120.167969 196.195312 119.4375 C 196.203125 118.707031 196.1875 117.976562 196.152344 117.246094 C 196.117188 116.511719 196.0625 115.785156 195.984375 115.054688 C 195.90625 114.328125 195.808594 113.605469 195.6875 112.882812 C 195.570312 112.160156 195.429688 111.441406 195.269531 110.726562 C 195.109375 110.015625 194.929688 109.304688 194.730469 108.601562 C 194.527344 107.898438 194.308594 107.199219 194.066406 106.507812 C 193.824219 105.816406 193.566406 105.132812 193.285156 104.457031 C 193.007812 103.78125 192.707031 103.113281 192.390625 102.457031 C 192.070312 101.796875 191.734375 101.148438 191.378906 100.507812 C 191.023438 99.867188 190.648438 99.238281 190.257812 98.621094 C 189.867188 98.003906 189.457031 97.394531 189.03125 96.800781 C 188.605469 96.207031 188.164062 95.625 187.703125 95.054688 C 187.246094 94.484375 186.769531 93.929688 186.277344 93.386719 C 185.785156 92.84375 185.28125 92.316406 184.757812 91.804688 C 184.238281 91.289062 183.699219 90.792969 183.152344 90.308594 C 182.601562 89.828125 182.035156 89.359375 181.460938 88.910156 C 180.882812 88.460938 180.292969 88.027344 179.691406 87.609375 C 179.089844 87.195312 178.476562 86.792969 177.851562 86.414062 C 177.230469 86.03125 176.59375 85.667969 175.949219 85.324219 C 175.304688 84.980469 174.648438 84.652344 173.984375 84.34375 C 173.320312 84.039062 172.648438 83.75 171.96875 83.480469 C 171.285156 83.210938 170.597656 82.960938 169.90625 82.734375 C 169.210938 82.503906 168.507812 82.292969 167.800781 82.105469 C 167.09375 81.914062 166.382812 81.746094 165.667969 81.597656 C 164.949219 81.449219 164.230469 81.320312 163.507812 81.214844 C 162.78125 81.105469 162.054688 81.019531 161.328125 80.953125 C 160.597656 80.886719 159.867188 80.84375 159.136719 80.820312 C 158.40625 80.796875 157.675781 80.792969 156.941406 80.8125 C 156.210938 80.828125 155.480469 80.867188 154.75 80.929688 C 154.023438 80.988281 153.296875 81.070312 152.570312 81.171875 C 151.84375 81.273438 151.125 81.394531 150.40625 81.535156 C 149.6875 81.679688 148.976562 81.84375 148.269531 82.027344 C 147.558594 82.210938 146.855469 82.414062 146.160156 82.636719 C 145.464844 82.863281 144.773438 83.105469 144.089844 83.371094 C 143.410156 83.632812 142.734375 83.914062 142.066406 84.21875 C 141.402344 84.519531 140.742188 84.839844 140.097656 85.179688 C 139.449219 85.519531 138.808594 85.878906 138.183594 86.253906 C 137.554688 86.632812 136.9375 87.027344 136.332031 87.4375 C 135.730469 87.847656 135.136719 88.277344 134.554688 88.722656 C 133.976562 89.167969 133.40625 89.628906 132.855469 90.109375 C 132.300781 90.585938 131.761719 91.082031 131.234375 91.589844 C 130.707031 92.097656 130.199219 92.621094 129.703125 93.160156 C 129.207031 93.699219 128.726562 94.25 128.261719 94.816406 C 127.800781 95.382812 127.351562 95.960938 126.921875 96.554688 C 126.488281 97.144531 126.078125 97.746094 125.679688 98.363281 C 125.285156 98.976562 124.90625 99.605469 124.546875 100.242188 C 124.183594 100.878906 123.84375 101.523438 123.519531 102.179688 C 123.195312 102.835938 122.890625 103.503906 122.605469 104.175781 C 122.320312 104.851562 122.054688 105.53125 121.808594 106.222656 C 121.5625 106.910156 121.335938 107.605469 121.128906 108.308594 C 120.925781 109.011719 120.738281 109.71875 120.570312 110.429688 C 120.40625 111.144531 120.261719 111.859375 120.136719 112.582031 C 120.011719 113.300781 119.90625 114.027344 119.824219 114.753906 C 119.742188 115.480469 119.679688 116.207031 119.636719 116.9375 C 119.597656 117.667969 119.574219 118.402344 119.574219 119.132812 C 119.578125 119.863281 119.597656 120.59375 119.640625 121.324219 C 119.683594 122.058594 119.746094 122.785156 119.828125 123.511719 C 119.914062 124.238281 120.019531 124.964844 120.144531 125.683594 C 120.269531 126.40625 120.414062 127.121094 120.582031 127.835938 C 120.75 128.546875 120.9375 129.253906 121.144531 129.957031 C 121.351562 130.65625 121.578125 131.351562 121.824219 132.042969 C 122.070312 132.730469 122.335938 133.410156 122.625 134.085938 L 31.847656 224.859375 C 31.347656 222.199219 30.921875 219.527344 30.570312 216.84375 C 30.214844 214.160156 29.9375 211.46875 29.730469 208.769531 C 29.527344 206.074219 29.394531 203.371094 29.335938 200.664062 C 29.28125 197.957031 29.296875 195.253906 29.390625 192.546875 C 29.480469 189.84375 29.644531 187.140625 29.886719 184.445312 C 30.125 181.75 30.4375 179.0625 30.828125 176.382812 C 31.214844 173.707031 31.675781 171.039062 32.207031 168.386719 C 32.742188 165.730469 33.347656 163.09375 34.027344 160.476562 C 34.707031 157.855469 35.457031 155.253906 36.277344 152.675781 C 37.097656 150.097656 37.988281 147.542969 38.953125 145.011719 C 39.914062 142.484375 40.945312 139.980469 42.042969 137.507812 C 43.140625 135.035156 44.308594 132.59375 45.542969 130.183594 C 46.773438 127.773438 48.074219 125.398438 49.4375 123.0625 C 50.800781 120.722656 52.226562 118.425781 53.714844 116.164062 C 55.207031 113.90625 56.757812 111.6875 58.367188 109.515625 C 59.980469 107.339844 61.648438 105.210938 63.378906 103.128906 C 65.105469 101.046875 66.890625 99.011719 68.730469 97.027344 C 70.570312 95.042969 72.464844 93.109375 74.410156 91.226562 C 76.355469 89.347656 78.351562 87.519531 80.398438 85.75 C 82.445312 83.976562 84.539062 82.265625 86.679688 80.609375 C 88.820312 78.953125 91.007812 77.355469 93.234375 75.820312 C 95.460938 74.28125 97.730469 72.808594 100.039062 71.398438 C 102.351562 69.984375 104.695312 68.636719 107.078125 67.355469 C 109.460938 66.070312 111.878906 64.855469 114.328125 63.707031 C 116.78125 62.554688 119.257812 61.472656 121.769531 60.460938 C 124.277344 59.445312 126.8125 58.5 129.375 57.625 C 131.9375 56.75 134.519531 55.949219 137.125 55.214844 C 139.730469 54.480469 142.355469 53.820312 144.996094 53.230469 C 147.636719 52.644531 150.292969 52.128906 152.964844 51.683594 C 155.636719 51.242188 158.316406 50.871094 161.003906 50.578125 C 163.695312 50.28125 166.390625 50.058594 169.09375 49.910156 C 171.796875 49.765625 174.503906 49.691406 177.207031 49.691406 Z M 157.933594 106.699219 C 158.746094 106.699219 159.550781 106.777344 160.34375 106.9375 C 161.140625 107.09375 161.910156 107.328125 162.660156 107.640625 C 163.410156 107.949219 164.121094 108.328125 164.796875 108.78125 C 165.46875 109.230469 166.09375 109.742188 166.667969 110.316406 C 167.238281 110.890625 167.75 111.511719 168.203125 112.1875 C 168.652344 112.859375 169.03125 113.574219 169.34375 114.320312 C 169.652344 115.070312 169.886719 115.84375 170.046875 116.636719 C 170.203125 117.433594 170.28125 118.234375 170.28125 119.046875 C 170.28125 119.859375 170.203125 120.660156 170.046875 121.457031 C 169.886719 122.25 169.652344 123.023438 169.34375 123.773438 C 169.03125 124.519531 168.652344 125.234375 168.203125 125.90625 C 167.75 126.582031 167.238281 127.203125 166.667969 127.777344 C 166.09375 128.351562 165.46875 128.863281 164.796875 129.3125 C 164.121094 129.765625 163.410156 130.144531 162.660156 130.453125 C 161.910156 130.765625 161.140625 131 160.34375 131.15625 C 159.550781 131.316406 158.746094 131.394531 157.933594 131.394531 C 157.125 131.394531 156.320312 131.316406 155.527344 131.15625 C 154.730469 131 153.960938 130.765625 153.210938 130.453125 C 152.460938 130.144531 151.75 129.765625 151.074219 129.3125 C 150.402344 128.863281 149.777344 128.351562 149.203125 127.777344 C 148.632812 127.203125 148.117188 126.582031 147.667969 125.90625 C 147.21875 125.234375 146.835938 124.519531 146.527344 123.773438 C 146.21875 123.023438 145.984375 122.25 145.824219 121.457031 C 145.667969 120.660156 145.585938 119.859375 145.585938 119.046875 C 145.589844 118.238281 145.667969 117.433594 145.828125 116.640625 C 145.988281 115.84375 146.222656 115.074219 146.53125 114.324219 C 146.84375 113.574219 147.222656 112.863281 147.671875 112.191406 C 148.125 111.515625 148.636719 110.894531 149.207031 110.320312 C 149.78125 109.746094 150.40625 109.234375 151.078125 108.785156 C 151.753906 108.335938 152.464844 107.953125 153.210938 107.644531 C 153.960938 107.332031 154.734375 107.097656 155.527344 106.9375 C 156.324219 106.78125 157.125 106.699219 157.933594 106.699219 Z M 157.933594 106.699219 " fill-opacity="1" fill-rule="nonzero"/></svg>