<svg xmlns="http://www.w3.org/2000/svg" xmlns:xlink="http://www.w3.org/1999/xlink" width="500" zoomAndPan="magnify" viewBox="0 0 375 374.999991" height="500" preserveAspectRatio="xMidYMid meet" version="1.0"><defs><clipPath id="d921bd288d"><path d="M 41 0.0546875 L 375 0.0546875 L 375 333 L 41 333 Z M 41 0.0546875 " clip-rule="nonzero"/></clipPath></defs><g clip-path="url(#d921bd288d)"><path fill="#52bec2" d="M 336.640625 0.265625 C 335.859375 0.269531 335.078125 0.292969 334.296875 0.339844 C 333.515625 0.386719 332.738281 0.460938 331.960938 0.554688 C 331.183594 0.648438 330.414062 0.769531 329.644531 0.910156 C 328.875 1.054688 328.113281 1.222656 327.351562 1.410156 C 326.59375 1.601562 325.84375 1.8125 325.097656 2.046875 C 324.351562 2.28125 323.613281 2.539062 322.882812 2.820312 C 322.152344 3.101562 321.433594 3.40625 320.722656 3.730469 C 320.007812 4.054688 319.308594 4.398438 318.617188 4.765625 C 317.929688 5.132812 317.25 5.523438 316.582031 5.933594 C 315.917969 6.339844 315.261719 6.769531 314.621094 7.21875 C 313.984375 7.667969 313.355469 8.136719 312.746094 8.621094 C 312.132812 9.109375 311.539062 9.613281 310.957031 10.136719 C 310.375 10.664062 309.8125 11.203125 309.261719 11.761719 C 308.714844 12.320312 308.1875 12.894531 307.671875 13.484375 C 307.160156 14.074219 306.667969 14.679688 306.191406 15.300781 C 305.714844 15.921875 305.257812 16.554688 304.824219 17.203125 C 304.386719 17.851562 303.96875 18.515625 303.574219 19.1875 C 303.175781 19.863281 302.800781 20.546875 302.445312 21.246094 C 302.09375 21.941406 301.757812 22.648438 301.449219 23.367188 C 301.136719 24.085938 300.847656 24.8125 300.582031 25.546875 C 300.316406 26.28125 300.070312 27.023438 299.847656 27.773438 C 299.628906 28.523438 299.429688 29.277344 299.253906 30.042969 C 299.078125 30.804688 298.925781 31.570312 298.800781 32.339844 C 298.671875 33.113281 298.566406 33.886719 298.484375 34.664062 C 298.40625 35.441406 298.347656 36.222656 298.3125 37.003906 C 298.28125 37.785156 298.269531 38.566406 298.285156 39.347656 C 298.300781 40.128906 298.339844 40.910156 298.402344 41.691406 C 298.464844 42.46875 298.550781 43.246094 298.660156 44.019531 C 298.769531 44.796875 298.902344 45.566406 299.058594 46.332031 C 299.214844 47.097656 299.394531 47.859375 299.597656 48.613281 C 299.800781 49.367188 300.027344 50.117188 300.277344 50.855469 C 300.527344 51.597656 300.796875 52.332031 301.09375 53.054688 L 41.945312 312.203125 C 41.945312 312.203125 43.621094 314.164062 52.089844 322.769531 C 60.558594 331.378906 62.65625 332.917969 62.65625 332.917969 L 321.609375 73.929688 C 322.261719 74.207031 322.921875 74.46875 323.585938 74.710938 C 324.253906 74.953125 324.925781 75.175781 325.605469 75.378906 C 326.28125 75.582031 326.964844 75.765625 327.65625 75.933594 C 328.34375 76.097656 329.035156 76.246094 329.734375 76.375 C 330.429688 76.503906 331.128906 76.609375 331.832031 76.699219 C 332.535156 76.789062 333.242188 76.859375 333.949219 76.910156 C 334.65625 76.957031 335.363281 76.988281 336.070312 77 C 336.78125 77.011719 337.488281 77 338.195312 76.972656 C 338.902344 76.945312 339.609375 76.894531 340.316406 76.828125 C 341.019531 76.761719 341.722656 76.675781 342.425781 76.566406 C 343.125 76.460938 343.820312 76.335938 344.515625 76.191406 C 345.210938 76.042969 345.898438 75.878906 346.582031 75.695312 C 347.265625 75.515625 347.945312 75.3125 348.621094 75.089844 C 349.292969 74.871094 349.960938 74.628906 350.617188 74.371094 C 351.277344 74.113281 351.929688 73.839844 352.574219 73.542969 C 353.222656 73.25 353.855469 72.9375 354.484375 72.609375 C 355.113281 72.28125 355.730469 71.933594 356.335938 71.570312 C 356.945312 71.207031 357.542969 70.828125 358.128906 70.429688 C 358.71875 70.035156 359.292969 69.621094 359.859375 69.191406 C 360.421875 68.765625 360.972656 68.320312 361.515625 67.859375 C 362.054688 67.402344 362.582031 66.929688 363.09375 66.441406 C 363.605469 65.953125 364.105469 65.449219 364.59375 64.933594 C 365.078125 64.417969 365.550781 63.886719 366.003906 63.347656 C 366.460938 62.804688 366.902344 62.25 367.328125 61.683594 C 367.753906 61.117188 368.164062 60.539062 368.558594 59.949219 C 368.953125 59.359375 369.328125 58.761719 369.6875 58.152344 C 370.050781 57.542969 370.390625 56.921875 370.71875 56.292969 C 371.042969 55.664062 371.351562 55.027344 371.644531 54.378906 C 371.933594 53.734375 372.207031 53.078125 372.460938 52.417969 C 372.714844 51.757812 372.953125 51.089844 373.167969 50.414062 C 373.386719 49.742188 373.585938 49.0625 373.765625 48.375 C 373.945312 47.691406 374.105469 47 374.25 46.304688 C 374.390625 45.613281 374.511719 44.914062 374.613281 44.214844 C 374.71875 43.511719 374.800781 42.808594 374.867188 42.101562 C 374.929688 41.398438 374.972656 40.691406 375 39.980469 C 375.023438 39.273438 375.027344 38.566406 375.015625 37.859375 C 375 37.148438 374.964844 36.441406 374.914062 35.734375 C 374.859375 35.027344 374.785156 34.324219 374.695312 33.621094 C 374.601562 32.917969 374.488281 32.21875 374.359375 31.523438 C 374.226562 30.828125 374.074219 30.136719 373.90625 29.445312 C 373.738281 28.757812 373.546875 28.078125 373.339844 27.398438 C 373.132812 26.722656 372.90625 26.050781 372.660156 25.386719 C 372.417969 24.71875 372.15625 24.0625 371.875 23.410156 C 371.59375 22.761719 371.292969 22.121094 370.976562 21.484375 C 370.660156 20.851562 370.324219 20.226562 369.972656 19.613281 C 369.625 18.996094 369.253906 18.390625 368.871094 17.796875 C 368.484375 17.203125 368.085938 16.617188 367.667969 16.042969 C 367.25 15.472656 366.816406 14.910156 366.367188 14.363281 C 365.921875 13.8125 365.457031 13.277344 364.980469 12.753906 C 364.5 12.230469 364.007812 11.722656 363.503906 11.226562 C 362.996094 10.730469 362.476562 10.25 361.945312 9.78125 C 361.410156 9.316406 360.867188 8.863281 360.308594 8.425781 C 359.75 7.988281 359.179688 7.570312 358.601562 7.164062 C 358.019531 6.757812 357.425781 6.367188 356.824219 5.996094 C 356.222656 5.625 355.609375 5.269531 354.984375 4.929688 C 354.363281 4.589844 353.730469 4.269531 353.09375 3.964844 C 352.453125 3.664062 351.804688 3.378906 351.148438 3.109375 C 350.492188 2.84375 349.828125 2.59375 349.160156 2.363281 C 348.488281 2.132812 347.8125 1.917969 347.132812 1.726562 C 346.449219 1.53125 345.761719 1.359375 345.070312 1.203125 C 344.378906 1.046875 343.683594 0.910156 342.988281 0.792969 C 342.289062 0.675781 341.585938 0.578125 340.882812 0.5 C 340.175781 0.421875 339.472656 0.363281 338.765625 0.324219 C 338.054688 0.285156 337.347656 0.265625 336.640625 0.265625 Z M 336.640625 50.976562 C 335.828125 50.976562 335.027344 50.894531 334.230469 50.738281 C 333.4375 50.578125 332.664062 50.34375 331.914062 50.035156 C 331.164062 49.726562 330.453125 49.34375 329.78125 48.894531 C 329.105469 48.445312 328.480469 47.933594 327.910156 47.359375 C 327.335938 46.785156 326.824219 46.160156 326.375 45.488281 C 325.921875 44.8125 325.542969 44.101562 325.230469 43.351562 C 324.921875 42.605469 324.6875 41.832031 324.53125 41.035156 C 324.371094 40.242188 324.292969 39.4375 324.292969 38.628906 C 324.292969 37.816406 324.371094 37.015625 324.53125 36.21875 C 324.6875 35.421875 324.921875 34.652344 325.230469 33.902344 C 325.542969 33.152344 325.921875 32.441406 326.375 31.765625 C 326.824219 31.09375 327.335938 30.46875 327.910156 29.894531 C 328.480469 29.324219 329.105469 28.8125 329.78125 28.359375 C 330.453125 27.910156 331.164062 27.53125 331.914062 27.21875 C 332.664062 26.910156 333.4375 26.675781 334.230469 26.515625 C 335.027344 26.359375 335.828125 26.28125 336.640625 26.28125 C 337.449219 26.28125 338.253906 26.359375 339.050781 26.515625 C 339.84375 26.675781 340.617188 26.910156 341.363281 27.21875 C 342.113281 27.53125 342.824219 27.910156 343.5 28.359375 C 344.175781 28.8125 344.796875 29.324219 345.371094 29.894531 C 345.945312 30.46875 346.457031 31.09375 346.90625 31.765625 C 347.355469 32.441406 347.738281 33.152344 348.046875 33.902344 C 348.359375 34.652344 348.59375 35.421875 348.75 36.21875 C 348.910156 37.015625 348.988281 37.816406 348.988281 38.628906 C 348.988281 39.4375 348.90625 40.242188 348.75 41.035156 C 348.589844 41.832031 348.355469 42.601562 348.046875 43.351562 C 347.734375 44.101562 347.355469 44.8125 346.902344 45.484375 C 346.453125 46.160156 345.941406 46.78125 345.367188 47.355469 C 344.796875 47.929688 344.171875 48.441406 343.5 48.890625 C 342.824219 49.34375 342.113281 49.722656 341.363281 50.03125 C 340.613281 50.34375 339.84375 50.578125 339.046875 50.738281 C 338.253906 50.894531 337.449219 50.976562 336.640625 50.976562 Z M 336.640625 50.976562 " fill-opacity="1" fill-rule="nonzero"/></g><path fill="#1a1732" d="M 328.542969 105.460938 L 307.082031 126.921875 C 337.597656 183.011719 329.167969 254.855469 281.769531 302.253906 C 279.652344 304.367188 277.476562 306.417969 275.234375 308.402344 C 272.996094 310.382812 270.695312 312.296875 268.339844 314.140625 C 265.984375 315.984375 263.574219 317.753906 261.109375 319.449219 C 258.644531 321.144531 256.132812 322.765625 253.570312 324.3125 C 251.007812 325.855469 248.398438 327.320312 245.746094 328.707031 C 243.097656 330.09375 240.40625 331.398438 237.675781 332.621094 C 234.945312 333.84375 232.179688 334.984375 229.378906 336.039062 C 226.582031 337.09375 223.75 338.0625 220.894531 338.945312 C 218.035156 339.828125 215.152344 340.625 212.246094 341.332031 C 209.339844 342.042969 206.414062 342.660156 203.46875 343.191406 C 200.523438 343.722656 197.566406 344.164062 194.59375 344.515625 C 191.625 344.867188 188.644531 345.125 185.65625 345.296875 C 182.671875 345.46875 179.679688 345.546875 176.6875 345.535156 C 173.699219 345.527344 170.707031 345.425781 167.722656 345.230469 C 164.738281 345.039062 161.761719 344.757812 158.792969 344.382812 C 155.824219 344.011719 152.867188 343.546875 149.929688 342.996094 L 179.648438 313.226562 C 180.324219 313.515625 181.003906 313.78125 181.695312 314.027344 C 182.386719 314.273438 183.082031 314.503906 183.785156 314.710938 C 184.488281 314.917969 185.195312 315.101562 185.910156 315.269531 C 186.625 315.4375 187.34375 315.582031 188.0625 315.707031 C 188.785156 315.832031 189.511719 315.9375 190.238281 316.023438 C 190.96875 316.105469 191.699219 316.167969 192.429688 316.210938 C 193.160156 316.253906 193.894531 316.273438 194.625 316.273438 C 195.359375 316.273438 196.09375 316.253906 196.824219 316.210938 C 197.554688 316.167969 198.285156 316.105469 199.015625 316.023438 C 199.742188 315.9375 200.46875 315.835938 201.191406 315.707031 C 201.910156 315.582031 202.628906 315.4375 203.34375 315.269531 C 204.058594 315.105469 204.765625 314.917969 205.46875 314.710938 C 206.171875 314.503906 206.867188 314.277344 207.558594 314.03125 C 208.25 313.78125 208.929688 313.515625 209.605469 313.230469 C 210.28125 312.945312 210.945312 312.636719 211.605469 312.3125 C 212.261719 311.988281 212.910156 311.648438 213.546875 311.285156 C 214.183594 310.925781 214.8125 310.542969 215.425781 310.148438 C 216.042969 309.75 216.648438 309.335938 217.238281 308.902344 C 217.832031 308.472656 218.410156 308.023438 218.976562 307.558594 C 219.542969 307.09375 220.097656 306.613281 220.636719 306.113281 C 221.175781 305.617188 221.699219 305.105469 222.207031 304.578125 C 222.71875 304.050781 223.210938 303.511719 223.691406 302.957031 C 224.167969 302.402344 224.632812 301.832031 225.078125 301.25 C 225.523438 300.667969 225.953125 300.074219 226.363281 299.46875 C 226.777344 298.863281 227.171875 298.246094 227.546875 297.617188 C 227.921875 296.988281 228.28125 296.347656 228.621094 295.699219 C 228.960938 295.046875 229.28125 294.390625 229.585938 293.722656 C 229.886719 293.054688 230.171875 292.378906 230.433594 291.695312 C 230.695312 291.011719 230.941406 290.320312 231.164062 289.621094 C 231.386719 288.921875 231.589844 288.21875 231.773438 287.511719 C 231.957031 286.800781 232.121094 286.085938 232.265625 285.367188 C 232.40625 284.648438 232.527344 283.925781 232.628906 283.199219 C 232.730469 282.472656 232.8125 281.746094 232.871094 281.015625 C 232.929688 280.285156 232.96875 279.550781 232.984375 278.820312 C 233.003906 278.085938 233 277.355469 232.976562 276.621094 C 232.949219 275.890625 232.90625 275.15625 232.839844 274.429688 C 232.773438 273.699219 232.683594 272.96875 232.578125 272.246094 C 232.46875 271.519531 232.339844 270.800781 232.191406 270.082031 C 232.042969 269.363281 231.871094 268.652344 231.679688 267.945312 C 231.492188 267.234375 231.28125 266.535156 231.050781 265.839844 C 230.820312 265.140625 230.570312 264.453125 230.300781 263.773438 C 230.027344 263.089844 229.738281 262.417969 229.429688 261.753906 C 229.121094 261.085938 228.796875 260.433594 228.449219 259.785156 C 228.101562 259.140625 227.738281 258.503906 227.355469 257.878906 C 226.972656 257.253906 226.574219 256.640625 226.15625 256.039062 C 225.738281 255.4375 225.304688 254.847656 224.851562 254.269531 C 224.398438 253.691406 223.933594 253.128906 223.449219 252.578125 C 222.964844 252.027344 222.464844 251.488281 221.949219 250.96875 C 221.4375 250.445312 220.90625 249.9375 220.363281 249.449219 C 219.820312 248.957031 219.261719 248.480469 218.691406 248.019531 C 218.121094 247.5625 217.535156 247.117188 216.941406 246.691406 C 216.34375 246.265625 215.734375 245.855469 215.117188 245.464844 C 214.496094 245.074219 213.867188 244.699219 213.222656 244.34375 C 212.582031 243.988281 211.933594 243.652344 211.273438 243.335938 C 210.613281 243.015625 209.941406 242.71875 209.265625 242.4375 C 208.585938 242.160156 207.902344 241.898438 207.210938 241.660156 C 206.519531 241.417969 205.820312 241.199219 205.113281 240.996094 C 204.410156 240.796875 203.699219 240.617188 202.984375 240.457031 C 202.265625 240.296875 201.546875 240.160156 200.824219 240.042969 C 200.101562 239.921875 199.375 239.824219 198.644531 239.75 C 197.917969 239.671875 197.1875 239.617188 196.453125 239.582031 C 195.722656 239.546875 194.988281 239.53125 194.257812 239.539062 C 193.523438 239.546875 192.792969 239.574219 192.058594 239.625 C 191.328125 239.671875 190.601562 239.742188 189.871094 239.832031 C 189.144531 239.925781 188.421875 240.035156 187.699219 240.167969 C 186.980469 240.300781 186.261719 240.453125 185.550781 240.625 C 184.839844 240.800781 184.132812 240.992188 183.429688 241.207031 C 182.730469 241.421875 182.035156 241.65625 181.347656 241.910156 C 180.660156 242.164062 179.980469 242.4375 179.308594 242.730469 C 178.636719 243.023438 177.972656 243.332031 177.320312 243.664062 C 176.664062 243.996094 176.019531 244.34375 175.386719 244.710938 C 174.75 245.078125 174.128906 245.464844 173.515625 245.867188 C 172.90625 246.269531 172.304688 246.691406 171.714844 247.128906 C 171.128906 247.566406 170.554688 248.023438 169.992188 248.492188 C 169.429688 248.960938 168.882812 249.449219 168.347656 249.953125 C 167.8125 250.453125 167.292969 250.96875 166.789062 251.503906 C 166.285156 252.035156 165.796875 252.578125 165.324219 253.140625 C 164.851562 253.699219 164.394531 254.273438 163.953125 254.859375 C 163.511719 255.445312 163.089844 256.042969 162.683594 256.652344 C 162.277344 257.261719 161.890625 257.882812 161.519531 258.515625 C 161.148438 259.148438 160.796875 259.792969 160.464844 260.445312 C 160.128906 261.097656 159.816406 261.757812 159.519531 262.429688 C 159.222656 263.101562 158.949219 263.78125 158.691406 264.464844 C 158.433594 265.152344 158.199219 265.847656 157.980469 266.546875 C 157.761719 267.246094 157.566406 267.953125 157.390625 268.664062 C 157.214844 269.375 157.058594 270.089844 156.921875 270.8125 C 156.785156 271.53125 156.671875 272.253906 156.578125 272.980469 C 156.484375 273.707031 156.410156 274.4375 156.359375 275.167969 C 156.304688 275.898438 156.273438 276.632812 156.265625 277.363281 C 156.253906 278.097656 156.265625 278.832031 156.296875 279.5625 C 156.328125 280.296875 156.378906 281.027344 156.453125 281.753906 C 156.527344 282.484375 156.621094 283.210938 156.738281 283.933594 C 156.851562 284.660156 156.988281 285.378906 157.144531 286.09375 C 157.300781 286.8125 157.476562 287.523438 157.675781 288.226562 C 157.871094 288.933594 158.089844 289.632812 158.328125 290.328125 C 158.5625 291.019531 158.820312 291.707031 159.097656 292.386719 L 118.195312 333.296875 L 96.179688 355.3125 C 98.308594 356.402344 100.460938 357.449219 102.632812 358.453125 C 104.800781 359.460938 106.992188 360.417969 109.203125 361.335938 C 111.414062 362.25 113.640625 363.121094 115.886719 363.945312 C 118.132812 364.773438 120.394531 365.550781 122.671875 366.285156 C 124.949219 367.019531 127.238281 367.707031 129.542969 368.347656 C 131.847656 368.988281 134.167969 369.582031 136.496094 370.132812 C 138.824219 370.679688 141.164062 371.179688 143.511719 371.632812 C 145.863281 372.082031 148.21875 372.488281 150.585938 372.847656 C 152.949219 373.203125 155.324219 373.511719 157.699219 373.773438 C 160.078125 374.035156 162.460938 374.246094 164.847656 374.414062 C 167.234375 374.578125 169.625 374.695312 172.015625 374.761719 C 174.40625 374.828125 176.796875 374.847656 179.191406 374.820312 C 181.582031 374.792969 183.972656 374.714844 186.363281 374.589844 C 188.753906 374.464844 191.136719 374.289062 193.519531 374.066406 C 195.902344 373.84375 198.277344 373.574219 200.648438 373.257812 C 203.019531 372.9375 205.382812 372.570312 207.742188 372.15625 C 210.097656 371.742188 212.445312 371.28125 214.78125 370.773438 C 217.121094 370.261719 219.445312 369.707031 221.761719 369.105469 C 224.078125 368.5 226.378906 367.851562 228.667969 367.15625 C 230.957031 366.457031 233.230469 365.714844 235.488281 364.925781 C 237.746094 364.136719 239.988281 363.304688 242.214844 362.425781 C 244.4375 361.546875 246.644531 360.621094 248.832031 359.652344 C 251.019531 358.683594 253.1875 357.671875 255.335938 356.617188 C 257.480469 355.558594 259.605469 354.460938 261.707031 353.316406 C 263.808594 352.175781 265.886719 350.992188 267.941406 349.765625 C 269.996094 348.539062 272.023438 347.269531 274.027344 345.960938 C 276.03125 344.652344 278.003906 343.304688 279.953125 341.914062 C 281.902344 340.527344 283.820312 339.097656 285.710938 337.632812 C 287.601562 336.167969 289.460938 334.664062 291.292969 333.121094 C 293.121094 331.578125 294.917969 330 296.683594 328.386719 C 298.449219 326.773438 300.183594 325.121094 301.878906 323.4375 C 303.578125 321.753906 305.242188 320.035156 306.871094 318.285156 C 308.503906 316.53125 310.09375 314.746094 311.652344 312.929688 C 313.210938 311.113281 314.730469 309.269531 316.210938 307.390625 C 317.695312 305.511719 319.136719 303.605469 320.542969 301.667969 C 321.949219 299.730469 323.3125 297.769531 324.636719 295.777344 C 325.964844 293.785156 327.25 291.765625 328.492188 289.722656 C 329.738281 287.679688 330.9375 285.613281 332.097656 283.519531 C 333.257812 281.425781 334.375 279.3125 335.449219 277.175781 C 336.523438 275.035156 337.554688 272.878906 338.542969 270.699219 C 339.53125 268.519531 340.472656 266.320312 341.371094 264.105469 C 342.269531 261.886719 343.121094 259.652344 343.929688 257.398438 C 344.738281 255.148438 345.5 252.878906 346.214844 250.597656 C 346.929688 248.316406 347.601562 246.019531 348.222656 243.707031 C 348.847656 241.398438 349.421875 239.078125 349.949219 236.742188 C 350.480469 234.410156 350.960938 232.066406 351.394531 229.714844 C 351.828125 227.363281 352.214844 225 352.554688 222.632812 C 352.894531 220.265625 353.183594 217.890625 353.425781 215.511719 C 353.667969 213.128906 353.863281 210.746094 354.007812 208.359375 C 354.152344 205.96875 354.25 203.582031 354.300781 201.1875 C 354.347656 198.796875 354.351562 196.402344 354.300781 194.011719 C 354.253906 191.621094 354.160156 189.230469 354.015625 186.84375 C 353.871094 184.453125 353.675781 182.070312 353.433594 179.691406 C 353.195312 177.308594 352.90625 174.933594 352.566406 172.566406 C 352.230469 170.199219 351.847656 167.835938 351.414062 165.484375 C 350.980469 163.132812 350.5 160.789062 349.972656 158.453125 C 349.445312 156.121094 348.871094 153.800781 348.25 151.488281 C 347.628906 149.179688 346.960938 146.882812 346.246094 144.597656 C 345.53125 142.316406 344.769531 140.046875 343.964844 137.792969 C 343.15625 135.542969 342.304688 133.308594 341.40625 131.089844 C 340.511719 128.871094 339.570312 126.671875 338.582031 124.492188 C 337.597656 122.3125 336.566406 120.152344 335.496094 118.015625 C 334.421875 115.878906 333.304688 113.761719 332.144531 111.667969 C 330.988281 109.574219 329.785156 107.507812 328.542969 105.460938 Z M 194.644531 265.601562 C 195.457031 265.601562 196.257812 265.679688 197.054688 265.839844 C 197.847656 265.996094 198.621094 266.230469 199.371094 266.542969 C 200.121094 266.851562 200.832031 267.230469 201.503906 267.683594 C 202.179688 268.132812 202.804688 268.644531 203.375 269.21875 C 203.949219 269.789062 204.460938 270.414062 204.910156 271.089844 C 205.363281 271.761719 205.742188 272.472656 206.054688 273.222656 C 206.363281 273.972656 206.597656 274.746094 206.753906 275.539062 C 206.914062 276.335938 206.992188 277.136719 206.992188 277.949219 C 206.992188 278.757812 206.914062 279.5625 206.753906 280.359375 C 206.597656 281.152344 206.363281 281.925781 206.054688 282.675781 C 205.742188 283.421875 205.363281 284.132812 204.910156 284.808594 C 204.460938 285.484375 203.949219 286.105469 203.375 286.679688 C 202.804688 287.253906 202.179688 287.765625 201.503906 288.214844 C 200.832031 288.667969 200.121094 289.046875 199.371094 289.355469 C 198.621094 289.667969 197.847656 289.902344 197.054688 290.058594 C 196.257812 290.21875 195.457031 290.296875 194.644531 290.296875 C 193.835938 290.296875 193.03125 290.21875 192.234375 290.058594 C 191.441406 289.902344 190.667969 289.667969 189.921875 289.355469 C 189.171875 289.046875 188.460938 288.667969 187.785156 288.214844 C 187.109375 287.765625 186.488281 287.253906 185.914062 286.679688 C 185.339844 286.105469 184.828125 285.484375 184.378906 284.808594 C 183.929688 284.132812 183.546875 283.421875 183.238281 282.675781 C 182.925781 281.925781 182.691406 281.152344 182.535156 280.359375 C 182.375 279.5625 182.296875 278.757812 182.296875 277.949219 C 182.296875 277.136719 182.375 276.332031 182.535156 275.539062 C 182.691406 274.742188 182.925781 273.96875 183.234375 273.21875 C 183.542969 272.46875 183.925781 271.757812 184.375 271.082031 C 184.824219 270.40625 185.335938 269.78125 185.910156 269.207031 C 186.484375 268.632812 187.105469 268.121094 187.78125 267.667969 C 188.457031 267.214844 189.167969 266.835938 189.917969 266.523438 C 190.667969 266.210938 191.4375 265.976562 192.234375 265.816406 C 193.03125 265.65625 193.832031 265.578125 194.644531 265.578125 Z M 194.644531 265.601562 " fill-opacity="1" fill-rule="nonzero"/><path fill="#52bec2" d="M 177.207031 49.746094 C 183.367188 49.738281 189.5 50.109375 195.609375 50.867188 C 201.722656 51.628906 207.761719 52.765625 213.726562 54.28125 C 219.695312 55.800781 225.542969 57.683594 231.273438 59.933594 C 237.007812 62.1875 242.574219 64.785156 247.980469 67.738281 L 269.398438 46.316406 C 267.355469 45.074219 265.285156 43.875 263.191406 42.714844 C 261.101562 41.554688 258.984375 40.4375 256.847656 39.367188 C 254.707031 38.292969 252.550781 37.261719 250.371094 36.277344 C 248.191406 35.289062 245.992188 34.347656 243.773438 33.453125 C 241.554688 32.554688 239.320312 31.703125 237.066406 30.894531 C 234.816406 30.089844 232.546875 29.328125 230.265625 28.613281 C 227.980469 27.898438 225.683594 27.230469 223.375 26.609375 C 221.066406 25.988281 218.742188 25.414062 216.410156 24.882812 C 214.074219 24.355469 211.734375 23.875 209.378906 23.445312 C 207.027344 23.011719 204.667969 22.625 202.296875 22.289062 C 199.929688 21.949219 197.554688 21.660156 195.175781 21.417969 C 192.792969 21.179688 190.410156 20.984375 188.023438 20.839844 C 185.632812 20.695312 183.246094 20.601562 180.851562 20.550781 C 178.460938 20.503906 176.070312 20.503906 173.675781 20.554688 C 171.285156 20.601562 168.894531 20.699219 166.507812 20.84375 C 164.117188 20.988281 161.734375 21.183594 159.355469 21.425781 C 156.972656 21.667969 154.601562 21.957031 152.230469 22.296875 C 149.863281 22.632812 147.503906 23.019531 145.148438 23.453125 C 142.796875 23.886719 140.453125 24.371094 138.121094 24.898438 C 135.789062 25.425781 133.464844 26.003906 131.15625 26.625 C 128.847656 27.246094 126.550781 27.917969 124.265625 28.632812 C 121.984375 29.347656 119.71875 30.109375 117.464844 30.917969 C 115.210938 31.722656 112.976562 32.578125 110.761719 33.472656 C 108.542969 34.371094 106.34375 35.316406 104.164062 36.300781 C 101.984375 37.289062 99.828125 38.320312 97.6875 39.394531 C 95.550781 40.46875 93.4375 41.585938 91.34375 42.746094 C 89.25 43.902344 87.183594 45.105469 85.140625 46.347656 C 83.097656 47.59375 81.078125 48.878906 79.085938 50.203125 C 77.09375 51.527344 75.128906 52.894531 73.195312 54.296875 C 71.257812 55.703125 69.351562 57.144531 67.472656 58.628906 C 65.59375 60.109375 63.746094 61.628906 61.929688 63.1875 C 60.113281 64.742188 58.328125 66.335938 56.578125 67.964844 C 54.824219 69.59375 53.105469 71.257812 51.421875 72.957031 C 49.738281 74.65625 48.085938 76.386719 46.472656 78.152344 C 44.859375 79.917969 43.28125 81.714844 41.738281 83.542969 C 40.195312 85.371094 38.691406 87.234375 37.226562 89.121094 C 35.757812 91.011719 34.332031 92.933594 32.941406 94.878906 C 31.550781 96.828125 30.203125 98.804688 28.894531 100.804688 C 27.585938 102.808594 26.316406 104.835938 25.089844 106.890625 C 23.863281 108.945312 22.679688 111.023438 21.535156 113.125 C 20.394531 115.226562 19.292969 117.351562 18.238281 119.496094 C 17.179688 121.644531 16.167969 123.808594 15.199219 125.996094 C 14.230469 128.183594 13.304688 130.390625 12.425781 132.613281 C 11.546875 134.839844 10.710938 137.082031 9.921875 139.339844 C 9.132812 141.597656 8.390625 143.871094 7.695312 146.160156 C 6.996094 148.449219 6.347656 150.75 5.742188 153.066406 C 5.140625 155.382812 4.582031 157.707031 4.074219 160.046875 C 3.5625 162.382812 3.101562 164.730469 2.6875 167.085938 C 2.273438 169.441406 1.90625 171.804688 1.585938 174.175781 C 1.269531 176.546875 0.996094 178.925781 0.773438 181.304688 C 0.550781 183.6875 0.378906 186.074219 0.25 188.460938 C 0.125 190.851562 0.046875 193.242188 0.0195312 195.636719 C -0.0117188 198.027344 0.0078125 200.417969 0.0742188 202.808594 C 0.144531 205.203125 0.257812 207.589844 0.421875 209.976562 C 0.585938 212.363281 0.800781 214.746094 1.0625 217.125 C 1.320312 219.503906 1.628906 221.875 1.988281 224.242188 C 2.34375 226.605469 2.746094 228.964844 3.199219 231.3125 C 3.652344 233.664062 4.152344 236 4.699219 238.332031 C 5.246094 240.660156 5.839844 242.976562 6.480469 245.28125 C 7.121094 247.585938 7.808594 249.878906 8.539062 252.15625 C 9.273438 254.433594 10.054688 256.695312 10.878906 258.941406 C 11.703125 261.183594 12.574219 263.414062 13.488281 265.625 C 14.402344 267.835938 15.363281 270.023438 16.367188 272.195312 C 17.371094 274.367188 18.417969 276.519531 19.507812 278.648438 L 41.523438 256.636719 L 143.480469 154.667969 C 144.160156 154.941406 144.847656 155.199219 145.539062 155.433594 C 146.230469 155.667969 146.929688 155.886719 147.636719 156.082031 C 148.339844 156.277344 149.050781 156.453125 149.765625 156.605469 C 150.480469 156.761719 151.199219 156.898438 151.921875 157.011719 C 152.644531 157.125 153.371094 157.21875 154.097656 157.289062 C 154.828125 157.363281 155.558594 157.414062 156.289062 157.445312 C 157.019531 157.476562 157.75 157.484375 158.480469 157.472656 C 159.214844 157.460938 159.945312 157.429688 160.675781 157.375 C 161.402344 157.324219 162.132812 157.25 162.859375 157.152344 C 163.582031 157.058594 164.304688 156.945312 165.023438 156.808594 C 165.742188 156.671875 166.457031 156.515625 167.167969 156.335938 C 167.878906 156.160156 168.582031 155.960938 169.28125 155.746094 C 169.980469 155.527344 170.671875 155.289062 171.355469 155.03125 C 172.042969 154.773438 172.71875 154.5 173.386719 154.203125 C 174.058594 153.90625 174.71875 153.589844 175.367188 153.257812 C 176.019531 152.921875 176.660156 152.570312 177.292969 152.199219 C 177.921875 151.828125 178.542969 151.441406 179.152344 151.035156 C 179.757812 150.628906 180.355469 150.207031 180.941406 149.765625 C 181.523438 149.324219 182.097656 148.867188 182.65625 148.394531 C 183.210938 147.921875 183.757812 147.433594 184.289062 146.929688 C 184.816406 146.425781 185.332031 145.90625 185.832031 145.371094 C 186.335938 144.839844 186.820312 144.292969 187.289062 143.730469 C 187.757812 143.167969 188.210938 142.59375 188.644531 142.007812 C 189.082031 141.417969 189.5 140.820312 189.902344 140.207031 C 190.304688 139.597656 190.6875 138.972656 191.054688 138.339844 C 191.421875 137.707031 191.769531 137.0625 192.097656 136.410156 C 192.429688 135.753906 192.738281 135.09375 193.03125 134.421875 C 193.320312 133.75 193.59375 133.070312 193.847656 132.386719 C 194.097656 131.699219 194.332031 131.003906 194.542969 130.304688 C 194.757812 129.605469 194.949219 128.898438 195.121094 128.1875 C 195.292969 127.476562 195.445312 126.761719 195.578125 126.039062 C 195.707031 125.320312 195.820312 124.597656 195.910156 123.871094 C 196 123.144531 196.066406 122.417969 196.117188 121.6875 C 196.164062 120.957031 196.191406 120.226562 196.195312 119.496094 C 196.203125 118.761719 196.1875 118.03125 196.152344 117.300781 C 196.117188 116.570312 196.0625 115.839844 195.984375 115.113281 C 195.90625 114.386719 195.808594 113.660156 195.6875 112.9375 C 195.570312 112.214844 195.429688 111.496094 195.269531 110.785156 C 195.109375 110.070312 194.929688 109.359375 194.730469 108.65625 C 194.527344 107.953125 194.308594 107.257812 194.066406 106.566406 C 193.824219 105.875 193.566406 105.191406 193.285156 104.515625 C 193.007812 103.839844 192.707031 103.171875 192.390625 102.511719 C 192.070312 101.851562 191.734375 101.203125 191.378906 100.5625 C 191.023438 99.925781 190.648438 99.296875 190.257812 98.675781 C 189.867188 98.058594 189.457031 97.453125 189.03125 96.855469 C 188.605469 96.261719 188.164062 95.679688 187.703125 95.109375 C 187.246094 94.539062 186.769531 93.984375 186.277344 93.441406 C 185.785156 92.898438 185.28125 92.371094 184.757812 91.859375 C 184.238281 91.347656 183.699219 90.847656 183.152344 90.367188 C 182.601562 89.882812 182.035156 89.417969 181.460938 88.964844 C 180.882812 88.515625 180.292969 88.082031 179.691406 87.667969 C 179.089844 87.25 178.476562 86.851562 177.851562 86.46875 C 177.230469 86.089844 176.59375 85.726562 175.949219 85.378906 C 175.304688 85.035156 174.648438 84.707031 173.984375 84.402344 C 173.320312 84.09375 172.648438 83.804688 171.96875 83.535156 C 171.285156 83.269531 170.597656 83.019531 169.90625 82.789062 C 169.210938 82.558594 168.507812 82.351562 167.800781 82.160156 C 167.09375 81.972656 166.382812 81.800781 165.667969 81.652344 C 164.949219 81.503906 164.230469 81.378906 163.507812 81.269531 C 162.78125 81.164062 162.054688 81.074219 161.328125 81.011719 C 160.597656 80.945312 159.867188 80.898438 159.136719 80.875 C 158.40625 80.851562 157.675781 80.847656 156.941406 80.867188 C 156.210938 80.886719 155.480469 80.925781 154.75 80.984375 C 154.023438 81.042969 153.296875 81.125 152.570312 81.226562 C 151.84375 81.328125 151.125 81.449219 150.40625 81.59375 C 149.6875 81.734375 148.976562 81.898438 148.269531 82.082031 C 147.558594 82.265625 146.855469 82.46875 146.160156 82.695312 C 145.464844 82.917969 144.773438 83.160156 144.089844 83.425781 C 143.410156 83.6875 142.734375 83.972656 142.066406 84.273438 C 141.402344 84.578125 140.742188 84.898438 140.097656 85.238281 C 139.449219 85.578125 138.808594 85.933594 138.183594 86.3125 C 137.554688 86.6875 136.9375 87.082031 136.332031 87.492188 C 135.730469 87.90625 135.136719 88.332031 134.554688 88.78125 C 133.976562 89.226562 133.40625 89.6875 132.855469 90.164062 C 132.300781 90.644531 131.761719 91.136719 131.234375 91.644531 C 130.707031 92.15625 130.199219 92.679688 129.703125 93.21875 C 129.207031 93.753906 128.726562 94.308594 128.261719 94.875 C 127.800781 95.4375 127.351562 96.019531 126.921875 96.609375 C 126.488281 97.199219 126.078125 97.804688 125.679688 98.417969 C 125.285156 99.035156 124.90625 99.660156 124.546875 100.296875 C 124.183594 100.933594 123.84375 101.582031 123.519531 102.238281 C 123.195312 102.894531 122.890625 103.558594 122.605469 104.234375 C 122.320312 104.90625 122.054688 105.589844 121.808594 106.277344 C 121.5625 106.964844 121.335938 107.660156 121.128906 108.363281 C 120.925781 109.066406 120.738281 109.773438 120.570312 110.484375 C 120.40625 111.199219 120.261719 111.914062 120.136719 112.636719 C 120.011719 113.359375 119.90625 114.082031 119.824219 114.808594 C 119.742188 115.535156 119.679688 116.265625 119.636719 116.996094 C 119.597656 117.726562 119.574219 118.457031 119.574219 119.1875 C 119.578125 119.921875 119.597656 120.652344 119.640625 121.382812 C 119.683594 122.113281 119.746094 122.839844 119.828125 123.570312 C 119.914062 124.296875 120.019531 125.019531 120.144531 125.738281 C 120.269531 126.460938 120.414062 127.179688 120.582031 127.890625 C 120.75 128.601562 120.9375 129.308594 121.144531 130.011719 C 121.351562 130.714844 121.578125 131.410156 121.824219 132.097656 C 122.070312 132.785156 122.335938 133.46875 122.625 134.140625 L 31.847656 224.917969 C 31.347656 222.257812 30.921875 219.585938 30.570312 216.902344 C 30.214844 214.21875 29.9375 211.527344 29.730469 208.828125 C 29.527344 206.128906 29.394531 203.425781 29.335938 200.71875 C 29.28125 198.015625 29.296875 195.308594 29.390625 192.605469 C 29.480469 189.898438 29.644531 187.199219 29.886719 184.503906 C 30.125 181.804688 30.4375 179.117188 30.828125 176.441406 C 31.214844 173.761719 31.675781 171.09375 32.207031 168.441406 C 32.742188 165.789062 33.347656 163.152344 34.027344 160.53125 C 34.707031 157.910156 35.457031 155.3125 36.277344 152.734375 C 37.097656 150.152344 37.988281 147.597656 38.953125 145.070312 C 39.914062 142.539062 40.945312 140.039062 42.042969 137.5625 C 43.140625 135.089844 44.308594 132.648438 45.542969 130.238281 C 46.773438 127.832031 48.074219 125.457031 49.4375 123.117188 C 50.800781 120.78125 52.226562 118.480469 53.714844 116.222656 C 55.207031 113.960938 56.757812 111.746094 58.367188 109.570312 C 59.980469 107.394531 61.648438 105.265625 63.378906 103.183594 C 65.105469 101.101562 66.890625 99.066406 68.730469 97.082031 C 70.570312 95.097656 72.464844 93.164062 74.410156 91.285156 C 76.355469 89.402344 78.351562 87.578125 80.398438 85.804688 C 82.445312 84.035156 84.539062 82.320312 86.679688 80.664062 C 88.820312 79.007812 91.007812 77.410156 93.234375 75.875 C 95.460938 74.339844 97.730469 72.863281 100.039062 71.453125 C 102.351562 70.042969 104.695312 68.695312 107.078125 67.410156 C 109.460938 66.128906 111.878906 64.910156 114.328125 63.761719 C 116.78125 62.609375 119.257812 61.527344 121.769531 60.515625 C 124.277344 59.5 126.8125 58.558594 129.375 57.683594 C 131.9375 56.808594 134.519531 56.003906 137.125 55.269531 C 139.730469 54.539062 142.355469 53.878906 144.996094 53.289062 C 147.636719 52.699219 150.292969 52.183594 152.964844 51.742188 C 155.636719 51.296875 158.316406 50.929688 161.003906 50.632812 C 163.695312 50.335938 166.390625 50.117188 169.09375 49.96875 C 171.796875 49.820312 174.503906 49.746094 177.207031 49.746094 Z M 157.933594 106.753906 C 158.746094 106.753906 159.550781 106.835938 160.34375 106.992188 C 161.140625 107.152344 161.910156 107.386719 162.660156 107.695312 C 163.410156 108.003906 164.121094 108.386719 164.796875 108.835938 C 165.46875 109.285156 166.09375 109.796875 166.667969 110.371094 C 167.238281 110.945312 167.75 111.570312 168.203125 112.242188 C 168.652344 112.917969 169.03125 113.628906 169.34375 114.378906 C 169.652344 115.125 169.886719 115.898438 170.046875 116.695312 C 170.203125 117.488281 170.28125 118.292969 170.28125 119.101562 C 170.28125 119.914062 170.203125 120.71875 170.046875 121.511719 C 169.886719 122.308594 169.652344 123.078125 169.34375 123.828125 C 169.03125 124.578125 168.652344 125.289062 168.203125 125.964844 C 167.75 126.636719 167.238281 127.261719 166.667969 127.835938 C 166.09375 128.40625 165.46875 128.917969 164.796875 129.371094 C 164.121094 129.820312 163.410156 130.199219 162.660156 130.511719 C 161.910156 130.820312 161.140625 131.054688 160.34375 131.214844 C 159.550781 131.371094 158.746094 131.449219 157.933594 131.449219 C 157.125 131.449219 156.320312 131.371094 155.527344 131.214844 C 154.730469 131.054688 153.960938 130.820312 153.210938 130.511719 C 152.460938 130.199219 151.75 129.820312 151.074219 129.371094 C 150.402344 128.917969 149.777344 128.40625 149.203125 127.835938 C 148.632812 127.261719 148.117188 126.636719 147.667969 125.964844 C 147.21875 125.289062 146.835938 124.578125 146.527344 123.828125 C 146.21875 123.078125 145.984375 122.308594 145.824219 121.511719 C 145.667969 120.71875 145.585938 119.914062 145.585938 119.101562 C 145.589844 118.292969 145.667969 117.488281 145.828125 116.695312 C 145.988281 115.902344 146.222656 115.128906 146.53125 114.378906 C 146.84375 113.632812 147.222656 112.921875 147.671875 112.246094 C 148.125 111.574219 148.636719 110.949219 149.207031 110.375 C 149.78125 109.804688 150.40625 109.292969 151.078125 108.839844 C 151.753906 108.390625 152.464844 108.011719 153.210938 107.699219 C 153.960938 107.390625 154.734375 107.152344 155.527344 106.996094 C 156.324219 106.835938 157.125 106.757812 157.933594 106.753906 Z M 157.933594 106.753906 " fill-opacity="1" fill-rule="nonzero"/></svg>